<?xml version="1.0" encoding="iso-8859-1"?>
<!-- Generator: Adobe Illustrator 16.0.0, SVG Export Plug-In . SVG Version: 6.00 Build 0)  -->
<!DOCTYPE svg PUBLIC "-//W3C//DTD SVG 1.1//EN" "http://www.w3.org/Graphics/SVG/1.1/DTD/svg11.dtd">
<svg xmlns="http://www.w3.org/2000/svg" xmlns:xlink="http://www.w3.org/1999/xlink" version="1.1" id="Capa_1" x="0px" y="0px" width="512px" height="512px" viewBox="0 0 41.934 41.934" style="enable-background:new 0 0 41.934 41.934;" xml:space="preserve">
<g>
	<g>
		<path d="M18.191,11.269c0-1.751-1.425-3.176-3.176-3.176s-3.175,1.425-3.175,3.176c0,1.75,1.424,3.174,3.175,3.174    S18.191,13.019,18.191,11.269z M15.015,12.442c-0.647,0-1.175-0.526-1.175-1.174c0-0.648,0.527-1.176,1.175-1.176    s1.176,0.527,1.176,1.176C16.191,11.917,15.663,12.442,15.015,12.442z" fill="#0266c8"/>
		<path d="M13.729,16.306v7.099c0,0.554,0.447,1,1,1c0.553,0,1-0.446,1-1v-7.099c0-0.553-0.447-1-1-1    C14.176,15.306,13.729,15.754,13.729,16.306z" fill="#0266c8"/>
		<path d="M4.691,22.232c0.004,0.009,0.012,0.018,0.016,0.025c0.046,0.104,0.109,0.195,0.184,0.275    c0.009,0.012,0.012,0.023,0.021,0.033c0.016,0.016,0.037,0.021,0.054,0.036c0.068,0.06,0.142,0.108,0.223,0.147    c0.031,0.015,0.06,0.031,0.092,0.043c0.108,0.039,0.222,0.065,0.339,0.065c0.124,0,0.249-0.021,0.37-0.071    c0.001,0,0.001-0.001,0.002-0.001c0.062-0.023,0.112-0.072,0.169-0.109c0.056-0.037,0.119-0.063,0.164-0.109    c0.001,0,0.002-0.001,0.002-0.001l3.848-3.847v15.619l-0.846,6.104c-0.076,0.548,0.306,1.053,0.853,1.128    c0.047,0.007,0.093,0.01,0.139,0.01c0.491,0,0.92-0.361,0.989-0.861l0.855-6.173c0.007-0.047,0.01-0.093,0.01-0.139v-18.1    c0-0.13-0.026-0.26-0.077-0.382c-0.101-0.245-0.296-0.439-0.541-0.541c-0.244-0.102-0.52-0.102-0.764,0    c-0.123,0.051-0.234,0.124-0.326,0.217l-4.48,4.479l-2.726-6.836c-0.205-0.514-0.789-0.764-1.299-0.559    c-0.514,0.204-0.764,0.786-0.559,1.299l3.288,8.246C4.689,22.231,4.691,22.231,4.691,22.232z" fill="#0266c8"/>
		<path d="M31.36,17.306c0.446,0,0.854-0.302,0.969-0.756c0-0.003,0-0.006,0-0.009c0.553-0.383,1.151-1.16,1.322-2.768    c0.144-1.358-0.058-3.022-0.562-4.687c-0.874-2.876-2.701-5.778-4.814-5.778c-0.154,0-0.304,0.034-0.451,0.066    c-0.424-0.196-0.934-0.095-1.222,0.295l-6.753,9.179c-0.161,0.22-0.227,0.495-0.18,0.764c0.047,0.269,0.201,0.507,0.427,0.658    c0.133,0.09,0.376,0.252,4.974,1.457c-0.043,0.059-0.094,0.108-0.123,0.177l-1.845,4.212l-4.516-4.517    c-0.092-0.093-0.203-0.166-0.326-0.217c-0.244-0.102-0.52-0.102-0.764,0c-0.245,0.102-0.439,0.296-0.541,0.541    c-0.051,0.122-0.077,0.252-0.077,0.382v11.489c0,0.127,0.024,0.253,0.071,0.37l1.987,4.976v7.794c0,0.553,0.447,1,1,1    c0.553,0,1-0.447,1-1v-7.986c0-0.127-0.024-0.253-0.071-0.371l-1.987-4.975v-8.882l3.826,3.828v0.001l0.02,0.019    c0.043,0.043,0.1,0.063,0.146,0.098c0.054,0.037,0.098,0.084,0.158,0.111c0.004,0.002,0.01,0.001,0.014,0.003    c0.119,0.051,0.246,0.077,0.375,0.078c0.004,0,0.009,0.003,0.013,0.003c0,0,0,0,0.001,0l0,0c0.001,0,0.002-0.001,0.003-0.001    c0.115,0,0.226-0.026,0.333-0.063c0.031-0.013,0.061-0.026,0.092-0.041c0.084-0.04,0.159-0.093,0.23-0.154    c0.015-0.013,0.033-0.019,0.049-0.032c0.007-0.007,0.009-0.017,0.016-0.022c0.077-0.082,0.146-0.175,0.193-0.282l2.432-5.554    c0.074-0.171,0.08-0.348,0.061-0.52c1.195,0.308,2.605,0.667,4.275,1.088C31.196,17.297,31.278,17.306,31.36,17.306z M31.175,9.67    c0.424,1.393,0.602,2.813,0.486,3.895c-0.101,0.94-0.385,1.321-0.508,1.359c-0.012,0.003-0.022,0.004-0.037,0.004    c-0.565,0-2.02-1.456-2.9-4.358c-0.715-2.354-0.604-4.242-0.199-5.001c0.089-0.165,0.174-0.24,0.258-0.259    C28.84,5.31,30.292,6.766,31.175,9.67z M25.735,8.224c0.072,0.923,0.26,1.916,0.566,2.927c0.34,1.119,0.827,2.241,1.417,3.195    c-2.202-0.567-4.207-1.096-5.431-1.438L25.735,8.224z" fill="#0266c8"/>
		<path d="M35.653,8.48c0.143,0,0.289-0.03,0.426-0.096l3.265-1.545c0.499-0.236,0.713-0.833,0.478-1.332    c-0.236-0.499-0.834-0.715-1.332-0.477l-3.265,1.545c-0.499,0.236-0.713,0.833-0.478,1.332C34.917,8.27,35.278,8.48,35.653,8.48z" fill="#0266c8"/>
		<path d="M35.521,0.314c-0.378-0.402-1.011-0.421-1.412-0.042l-2.098,1.976c-0.402,0.379-0.421,1.012-0.042,1.413    c0.196,0.209,0.462,0.314,0.728,0.314c0.246,0,0.492-0.09,0.687-0.272l2.097-1.976C35.881,1.348,35.899,0.716,35.521,0.314z" fill="#0266c8"/>
		<path d="M36.167,13.853h3.436c0.553,0,1-0.447,1-1c0-0.553-0.447-1-1-1h-3.436c-0.553,0-1,0.447-1,1    C35.167,13.405,35.614,13.853,36.167,13.853z" fill="#0266c8"/>
	</g>
</g>
<g>
</g>
<g>
</g>
<g>
</g>
<g>
</g>
<g>
</g>
<g>
</g>
<g>
</g>
<g>
</g>
<g>
</g>
<g>
</g>
<g>
</g>
<g>
</g>
<g>
</g>
<g>
</g>
<g>
</g>
</svg>
